<?xml version="1.0" standalone="no"?>
<!DOCTYPE svg PUBLIC "-//W3C//DTD SVG 20010904//EN"
 "http://www.w3.org/TR/2001/REC-SVG-20010904/DTD/svg10.dtd">
<svg version="1.0" xmlns="http://www.w3.org/2000/svg"
 width="272.000000pt" height="272.000000pt" viewBox="0 0 272.000000 272.000000"
 preserveAspectRatio="xMidYMid meet">
<metadata>
Created by potrace 1.14, written by Peter Selinger 2001-2017
</metadata>
<g transform="translate(0.000000,272.000000) scale(0.100000,-0.100000)"
fill="#000000" stroke="none">
<path d="M546 2164 l-536 -535 0 -175 0 -174 547 -547 547 -547 43 -1 c39 0
48 -6 108 -64 l65 -64 154 0 154 1 543 542 542 542 1 160 1 160 -102 104 -103
103 0 128 0 128 -388 388 -388 387 -153 0 -153 0 79 -80 c43 -44 79 -85 81
-89 6 -16 852 -858 857 -853 3 3 5 1 5 -5 0 -5 52 -62 117 -126 l116 -117 -19
-22 c-10 -12 -311 -313 -667 -670 l-648 -647 -39 41 c-22 22 -40 44 -40 48 0
5 30 7 66 6 50 -1 72 2 89 15 12 10 261 257 554 549 458 458 532 536 529 558
-3 23 -71 -42 -564 -535 l-560 -560 -684 683 -683 684 561 560 c491 491 557
560 532 560 -25 0 -108 -79 -564 -536z"/>
<path d="M858 1995 c-321 -322 -583 -592 -583 -600 0 -16 41 -58 645 -659
l451 -449 30 29 c17 16 249 249 517 517 268 269 520 521 560 560 39 39 72 76
72 83 0 13 -1066 1080 -1094 1096 -12 7 -154 -131 -598 -577z m340 -120 c17
-4 21 -9 14 -23 -5 -9 -8 -98 -7 -197 2 -99 1 -187 -2 -197 -3 -14 -9 -15 -41
-6 -20 5 -41 13 -45 17 -12 12 -14 410 -2 415 10 3 42 0 83 -9z m384 -14 c4
-3 -6 -44 -22 -91 -16 -47 -32 -98 -34 -115 -3 -16 -12 -52 -21 -80 -8 -27
-15 -64 -15 -81 0 -41 -15 -53 -53 -44 -52 12 -87 29 -91 42 -22 68 -48 161
-52 183 -3 16 -7 32 -9 35 -4 6 -10 56 -18 145 -2 16 4 20 28 21 56 1 75 -14
76 -63 1 -23 2 -46 3 -50 1 -5 8 -42 16 -83 l13 -75 14 34 c8 19 26 77 40 130
14 53 29 101 35 108 9 11 73 0 90 -16z m140 15 c25 -6 26 -8 17 -36 -6 -17 -9
-102 -7 -210 l3 -180 -31 0 c-65 0 -66 5 -67 224 0 205 2 218 42 210 9 -1 28
-5 43 -8z m176 -8 c7 -6 10 -18 7 -28 -5 -15 -8 -171 -6 -257 1 -34 7 -35 58
-11 17 8 29 6 55 -9 43 -25 44 -55 2 -64 -17 -3 -52 -16 -77 -28 -31 -15 -54
-20 -74 -15 -60 14 -60 16 -58 232 1 108 3 199 4 201 2 6 76 -11 89 -21z
m-868 -74 c12 -30 13 -84 2 -101 -6 -10 -17 -10 -53 0 -34 10 -43 18 -41 33 1
10 3 36 3 57 0 36 1 37 40 37 33 0 41 -4 49 -26z m-131 -23 c-26 -50 -34 -152
-17 -210 l13 -44 32 27 c18 15 35 36 38 46 8 26 29 25 71 -1 l34 -21 -27 -38
c-15 -21 -42 -48 -60 -60 -29 -20 -36 -21 -70 -10 -89 29 -135 94 -136 189 0
105 0 106 43 130 22 12 40 20 40 16 0 -3 8 -1 18 4 35 21 42 12 21 -28z m258
-482 c37 -12 41 -19 49 -102 7 -72 15 -109 51 -229 14 -47 23 -93 20 -101 -6
-16 -29 -14 -80 7 -28 11 -30 16 -42 74 -5 24 -11 32 -23 28 -107 -31 -104
-29 -123 -73 -20 -47 -29 -50 -83 -28 l-36 15 16 38 c9 20 18 42 21 48 2 7 -1
15 -7 19 -8 5 -4 14 13 29 17 14 36 55 61 131 20 61 36 119 36 131 0 11 3 24
7 27 8 8 77 0 120 -14z m588 -32 c25 -25 46 -54 46 -66 1 -12 2 -36 3 -53 5
-77 -51 -192 -128 -267 -30 -30 -39 -33 -71 -28 -21 3 -48 13 -61 22 l-24 15
0 205 0 205 33 1 c17 0 41 5 52 10 11 5 39 7 63 5 35 -3 51 -12 87 -49z"/>
<path d="M1096 1149 c-11 -36 -25 -76 -31 -92 -6 -14 -3 -16 16 -13 13 3 30 5
37 5 7 1 11 5 7 10 -3 6 -8 29 -11 53 -7 48 -11 58 -18 37z"/>
<path d="M1636 1221 c-26 -15 -26 -17 -26 -133 0 -65 3 -118 8 -118 10 0 48
58 61 93 16 41 30 139 22 157 -8 20 -33 21 -65 1z"/>
<path d="M624 2147 l-378 -378 -1 -142 c-1 -78 1 -147 3 -154 3 -11 1062 1037
1062 1051 0 3 -69 5 -154 4 l-153 -2 -379 -379z"/>
</g>
</svg>
